# xmcd
#
# Track frame offsets:
# 150
# 18402
# 33845
# 62970
# 81922
# 96785
# 112122
# 129690
# 144587
# 157985
#
# Disc length: 2309 seconds
#
# Revision: 0
# Processed by: cddbd v1.5.1PL2 Copyright (c) Steve Scherf et al.
# Submitted via: CoinsHifi v1.8d contact@coinshifi.com
#
DISCID=8409030a
DTITLE=Mark Knopfler - Neck and neck
DYEAR=1990
DGENRE=blues
TTITLE0=Mark Knopfler - Poor boy blues
TTITLE1=Mark Knopfler/Chet Atkins - Sweet dreams
TTITLE2=Mark Knopfler/Chet Atkins - There'll be some changes made
TTITLE3=Mark Knopfler/Chet Atkins - Just one time
TTITLE4=Mark Knopfler/Chet Atkins - So soft, your goodbye
TTITLE5=Mark Knopfler/Chet Atkins - Yakety axe
TTITLE6=Mark Knopfler/Chet Atkins - Tears
TTITLE7=Mark Knopfler/Chet Atkins - Tahitian skies
TTITLE8=Mark Knopfler/Chet Atkins - I'll see you in my dreams
TTITLE9=Mark Knopfler/Chet Atkins - The next time I'm in town
EXTD=
EXTT0=
EXTT1=
EXTT2=
EXTT3=
EXTT4=
EXTT5=
EXTT6=
EXTT7=
EXTT8=
EXTT9=
PLAYORDER=
